<?xml version="1.0" standalone="no"?>
<!DOCTYPE svg PUBLIC "-//W3C//DTD SVG 20010904//EN"
 "http://www.w3.org/TR/2001/REC-SVG-20010904/DTD/svg10.dtd">
<svg version="1.0" xmlns="http://www.w3.org/2000/svg"
 width="669.000000pt" height="879.000000pt" viewBox="0 0 669.000000 879.000000"
 preserveAspectRatio="xMidYMid meet">
<metadata>
Created by potrace 1.15, written by Peter Selinger 2001-2017
</metadata>
<g transform="translate(0.000000,879.000000) scale(0.100000,-0.100000)"
fill="#000000" stroke="none">
<path d="M3355 6376 c-33 -7 -141 -16 -240 -20 -99 -4 -187 -7 -195 -8 -8 0
-44 7 -80 17 -50 13 -90 16 -175 13 -131 -6 -180 -24 -252 -93 -62 -60 -104
-76 -169 -63 -61 12 -145 3 -198 -21 -45 -20 -91 -67 -127 -130 -12 -23 -26
-41 -30 -41 -11 0 -188 -118 -273 -183 -43 -33 -121 -101 -175 -152 -53 -51
-106 -95 -118 -99 -13 -4 -23 -12 -23 -17 0 -5 -6 -9 -13 -9 -14 0 -90 -77
-124 -126 -12 -17 -26 -47 -31 -68 -6 -21 -37 -76 -70 -124 -202 -297 -354
-641 -465 -1052 -39 -146 -44 -303 -13 -387 45 -122 155 -214 299 -253 195
-53 454 -59 2437 -54 1899 4 2477 10 2528 26 59 18 132 113 132 173 0 18 16
40 55 77 66 61 92 128 81 211 -9 68 -27 98 -76 131 l-41 27 32 36 c85 98 93
236 19 331 -29 36 -109 92 -132 92 -20 0 -23 21 -7 52 6 11 11 44 11 73 1 67
-35 134 -93 172 -22 15 -39 34 -39 45 0 22 -51 137 -78 176 -10 15 -31 67 -47
115 -64 199 -201 365 -344 417 l-58 22 -7 74 c-22 244 -122 419 -262 460 -52
15 -70 16 -143 5 -47 -7 -119 -25 -161 -42 l-77 -29 -58 35 c-33 19 -84 44
-114 56 -31 11 -69 33 -86 48 -51 48 -86 61 -217 81 -87 13 -219 -1 -320 -33
l-78 -25 -97 34 c-115 40 -203 49 -288 30z m-705 -16 c0 -5 7 -10 16 -10 11 0
14 -6 9 -20 -5 -16 -3 -19 11 -13 14 5 16 2 12 -15 -4 -12 -2 -22 3 -22 5 0 9
7 9 15 0 9 8 19 17 22 14 6 12 9 -12 20 l-30 14 28 -6 c24 -5 38 7 20 18 -5 2
-2 2 5 0 8 -1 20 -3 29 -3 12 0 12 -2 -1 -16 -9 -8 -16 -20 -16 -25 0 -5 -7
-9 -16 -9 -8 0 -13 -4 -9 -10 3 -5 12 -7 20 -3 8 3 15 0 15 -6 0 -6 7 -11 15
-11 8 0 15 5 15 11 0 5 -4 8 -9 4 -5 -3 -12 -1 -16 5 -3 5 3 10 14 10 12 0 21
5 21 11 0 6 -7 9 -15 5 -8 -3 -15 -1 -15 4 0 18 32 10 51 -12 23 -26 25 -16 3
17 -10 15 -12 25 -5 25 6 0 11 -4 11 -9 0 -5 11 -8 25 -8 31 0 40 -7 29 -24
-4 -7 -9 -25 -10 -39 l-2 -25 12 28 c7 15 16 24 21 20 4 -5 5 -2 0 6 -6 11 -3
13 13 9 12 -4 22 -2 22 3 0 5 5 9 11 9 5 0 7 -6 3 -12 -4 -7 -4 -10 0 -6 5 4
27 -3 49 -15 40 -21 41 -21 17 -29 -22 -7 -22 -7 5 -4 16 2 38 0 47 -5 10 -5
18 -6 18 -1 0 5 -27 22 -61 39 -33 17 -57 33 -52 36 4 3 62 6 127 6 65 1 123
4 128 7 4 3 8 1 8 -5 0 -6 -9 -15 -21 -21 -11 -7 -38 -27 -60 -47 -21 -19 -43
-32 -50 -28 -8 5 -9 1 -4 -14 8 -27 -6 -27 -30 -1 -17 19 -20 19 -28 4 -6 -10
-5 -20 2 -27 12 -12 15 -31 4 -24 -10 6 -27 -14 -31 -33 -2 -11 2 -10 12 3 8
10 17 14 20 9 8 -13 -5 -52 -18 -52 -6 0 -22 -3 -36 -6 -20 -4 -22 -3 -10 5
12 9 11 11 -7 11 -13 0 -23 -4 -23 -10 0 -6 -3 -9 -7 -8 -5 0 -16 -2 -26 -7
-10 -4 -21 -5 -24 -1 -4 3 1 6 10 6 10 0 17 5 17 10 0 12 -3 12 -24 4 -9 -3
-16 -13 -16 -21 0 -8 -5 -11 -10 -8 -6 4 -17 1 -25 -5 -15 -13 -20 -4 -16 29
2 7 -2 10 -7 7 -5 -3 -18 4 -28 16 -14 15 -16 22 -6 25 6 3 12 11 12 20 0 12
-2 12 -16 -1 -18 -18 -34 -21 -34 -6 0 6 -7 10 -16 10 -9 0 -12 5 -8 12 11 17
12 48 2 42 -4 -3 -8 2 -8 11 0 12 -5 15 -16 11 -9 -3 -20 -6 -25 -6 -16 0 -10
-15 12 -28 12 -8 18 -9 14 -3 -3 6 -1 11 4 11 14 0 14 -27 0 -35 -5 -4 -19 1
-30 11 -11 10 -19 12 -19 6 0 -7 -8 -12 -17 -11 -11 0 -13 3 -5 6 18 7 16 63
-3 63 -18 0 -19 12 -3 28 7 7 8 12 3 12 -6 0 -10 14 -10 30 0 17 3 30 8 30 4
0 7 -4 7 -10z m-284 -190 c70 -24 199 -95 257 -143 l41 -34 87 28 c111 36 352
84 499 99 124 13 470 17 560 6 30 -4 93 -12 140 -18 117 -14 369 -75 460 -112
9 -3 32 9 58 33 54 48 195 122 287 151 86 27 213 30 266 7 45 -20 110 -91 143
-155 64 -126 94 -366 62 -491 l-16 -64 45 -51 c143 -160 300 -396 408 -611
153 -308 288 -750 304 -1001 5 -84 4 -96 -21 -149 -27 -59 -51 -87 -96 -110
-19 -9 -147 -14 -520 -19 -807 -10 -3696 -15 -3942 -6 -215 7 -229 9 -285 34
-72 33 -100 59 -123 111 -32 75 -33 130 -6 261 88 413 264 818 500 1154 86
121 246 309 317 373 l61 54 2 169 c2 156 4 175 29 246 43 122 95 202 155 239
64 41 202 40 328 -1z m-501 -220 c-8 -23 -15 -50 -15 -60 0 -11 -16 -23 -47
-35 -56 -22 -127 -85 -153 -136 -17 -32 -24 -37 -69 -43 -27 -3 -75 -15 -107
-26 -31 -11 -59 -18 -61 -16 -5 5 103 104 185 170 71 57 275 197 279 192 2 -2
-4 -22 -12 -46z m-737 -771 c1 -52 -3 -116 -9 -143 -13 -56 -16 -163 -6 -216
l7 -36 -66 -28 c-131 -57 -205 -162 -212 -300 -4 -71 -8 -85 -38 -129 -19 -27
-34 -57 -34 -66 0 -9 -4 -21 -9 -26 -14 -16 -31 -101 -31 -157 0 -66 24 -160
52 -207 25 -42 92 -107 127 -124 16 -8 30 -28 39 -56 9 -28 34 -64 64 -94 l50
-49 -59 7 c-32 4 -90 17 -130 30 -262 83 -342 273 -255 605 60 227 137 441
232 645 76 163 247 447 265 441 6 -1 11 -45 13 -97z"/>
<path d="M2115 6017 c-37 -37 -57 -97 -58 -173 0 -65 20 -106 57 -116 78 -20
258 73 287 149 20 53 -47 121 -152 154 -82 26 -96 24 -134 -14z"/>
<path d="M4832 6031 c-59 -20 -119 -65 -142 -104 -13 -24 -13 -30 3 -59 34
-62 139 -124 239 -142 30 -5 41 -2 65 18 26 23 28 29 28 103 0 102 -28 167
-79 188 -44 19 -49 18 -114 -4z"/>
<path d="M2728 4733 c-38 -6 -84 -52 -96 -97 -19 -68 26 -142 99 -159 62 -15
139 36 154 103 19 85 -64 166 -157 153z"/>
<path d="M4209 4713 c-52 -32 -75 -108 -48 -165 28 -62 123 -87 187 -48 74 45
69 168 -8 214 -36 20 -97 20 -131 -1z"/>
<path d="M3437 4566 c-74 -27 -82 -49 -43 -131 21 -45 94 -125 114 -125 14 0
2 -210 -13 -240 -46 -88 -157 -115 -241 -58 -39 27 -53 49 -68 107 -8 36 -16
46 -31 46 -27 0 -31 -36 -10 -91 23 -61 50 -91 108 -120 94 -48 225 -17 267
62 l14 25 35 -37 c119 -122 316 -86 367 68 20 60 16 93 -11 93 -15 0 -21 -9
-26 -35 -16 -100 -89 -158 -185 -147 -50 5 -85 27 -118 71 -18 23 -22 45 -24
140 -4 113 -4 113 23 130 68 44 123 141 111 192 -14 55 -172 84 -269 50z"/>
<path d="M1845 4361 c-10 -18 4 -30 43 -37 20 -3 183 -35 362 -70 179 -35 331
-64 338 -64 6 0 12 8 12 18 0 21 25 15 -415 101 -323 63 -332 65 -340 52z"/>
<path d="M4760 4299 c-190 -38 -351 -71 -357 -74 -7 -2 -10 -12 -6 -20 6 -19
11 -18 173 15 154 32 492 98 538 105 32 5 42 11 42 26 0 13 -7 19 -22 18 -13
-1 -178 -32 -368 -70z"/>
<path d="M2354 4114 c-398 -35 -466 -46 -438 -73 5 -6 37 -6 84 0 41 5 195 20
343 33 147 12 270 25 273 29 3 3 3 10 -1 16 -8 13 -65 12 -261 -5z"/>
<path d="M4380 4115 c0 -19 9 -21 245 -40 286 -23 313 -26 380 -36 78 -12 75
-12 75 10 0 22 -10 24 -235 45 -440 42 -465 43 -465 21z"/>
<path d="M2375 3971 c-143 -48 -311 -103 -373 -121 -89 -26 -112 -36 -110 -49
5 -20 29 -18 138 15 183 55 598 198 611 211 4 4 5 14 1 20 -6 9 -77 -11 -267
-76z"/>
<path d="M4362 4039 c3 -21 29 -32 248 -107 291 -99 477 -155 491 -147 22 14
7 35 -33 45 -35 8 -646 208 -696 227 -10 4 -13 -2 -10 -18z"/>
<path d="M3605 3338 c-11 -6 -38 -26 -61 -44 l-40 -33 -90 6 c-60 4 -97 11
-114 23 -33 23 -98 50 -120 50 -36 0 -39 -54 -9 -136 l21 -56 -25 -117 c-39
-176 -49 -246 -50 -361 -1 -124 10 -155 68 -187 100 -55 350 -76 436 -36 84
38 102 89 100 288 -1 137 -16 239 -48 328 -25 69 -25 69 -8 151 23 117 3 160
-60 124z m-115 -263 c33 -30 55 -147 55 -292 0 -123 -2 -134 -22 -155 -31 -30
-129 -38 -183 -13 -50 23 -55 45 -40 183 18 164 47 281 73 293 31 12 95 4 117
-16z"/>
<path d="M1595 3243 c-154 -8 -280 -15 -281 -16 -1 -1 1 -37 3 -79 l6 -78 93
0 93 0 3 -87 c2 -49 5 -189 6 -313 2 -123 4 -226 6 -227 5 -6 155 10 167 17
11 8 14 65 22 485 l2 120 93 3 92 3 0 94 c0 70 -3 95 -12 94 -7 -1 -139 -8
-293 -16z"/>
<path d="M5385 3249 c-82 -5 -210 -11 -283 -15 l-133 -6 3 -77 3 -76 98 -3 97
-3 0 -127 c1 -135 11 -495 15 -500 3 -3 165 15 169 19 4 5 16 369 16 502 l0
107 89 0 88 0 7 86 c6 82 3 106 -12 103 -4 -1 -74 -6 -157 -10z"/>
<path d="M2100 3240 c0 -6 -20 -59 -45 -118 -177 -427 -263 -648 -252 -653 7
-3 45 -11 86 -18 85 -13 82 -15 108 67 l17 52 131 0 132 0 11 -37 c6 -21 14
-55 17 -76 4 -20 10 -39 14 -42 7 -4 181 31 188 38 2 2 -31 100 -73 218 -42
118 -104 292 -138 388 -50 142 -65 175 -84 182 -32 12 -112 11 -112 -1z m100
-404 c17 -59 29 -110 27 -113 -3 -2 -38 -3 -80 -1 l-75 3 39 100 c21 55 41
106 44 114 8 21 10 15 45 -103z"/>
<path d="M2732 3239 c-100 -17 -173 -64 -199 -128 -32 -76 -25 -331 13 -502
29 -127 104 -179 259 -179 87 0 148 27 215 95 l44 45 -56 57 -57 57 -38 -30
c-88 -69 -144 -83 -182 -45 -24 24 -44 184 -40 316 4 92 5 98 32 121 38 33
109 34 131 2 9 -12 16 -35 16 -51 l0 -28 63 6 c114 11 107 5 107 89 0 87 -23
130 -84 160 -45 22 -147 29 -224 15z"/>
<path d="M3990 3237 c-123 -28 -182 -82 -201 -182 -21 -114 10 -435 50 -513
41 -80 107 -112 230 -112 93 0 153 26 221 95 l44 45 -56 57 -56 56 -39 -30
c-83 -65 -146 -80 -181 -43 -24 26 -47 221 -40 336 5 69 8 80 32 101 19 16 39
23 69 23 55 0 69 -10 76 -56 l7 -39 58 4 c32 2 66 5 75 6 9 2 19 4 24 4 4 1 7
34 7 75 0 87 -22 130 -84 160 -49 24 -161 30 -236 13z"/>
<path d="M4681 3228 c-5 -13 -43 -108 -86 -213 -43 -104 -91 -224 -107 -265
-17 -41 -48 -117 -70 -169 -22 -51 -37 -99 -35 -105 4 -11 165 -42 172 -34 1
2 11 30 21 63 l19 60 132 3 131 3 10 -33 c5 -18 15 -54 22 -80 11 -41 16 -47
34 -43 11 3 52 11 89 19 37 8 71 16 74 20 3 3 -45 146 -106 318 -62 172 -124
347 -139 389 -25 74 -27 77 -61 83 -68 11 -91 7 -100 -16z m103 -390 c14 -54
26 -102 26 -108 0 -6 -31 -10 -75 -10 -41 0 -75 4 -75 8 0 5 11 35 23 68 13
32 32 81 42 107 9 27 21 45 25 40 4 -4 19 -52 34 -105z"/>
</g>
</svg>
